# xmcd
#
# Track frame offsets:
#	150
#	14887
#	32208
#	51932
#	65753
#	81524
#	93019
#	109679
#	121812
#	134613
#	153855
#	167380
#	185030
#
# Disc length: 2706 seconds
# Revision: 0
# Processed by: cddbd v1.5.2PL0 Copyright (c) Steve Scherf et al.
# Submitted via: dBpowerAMP V12.0
#
DISCID=b10a900d
DTITLE=Ernest Troost - All the Boats Are Gonna Rise
DYEAR=2004
DGENRE=Blues
TTITLE0=All the Boats Are Gonna Rise
TTITLE1=Hold On
TTITLE2=Evangeline
TTITLE3=She Might Have Been a Muse
TTITLE4=Disturbin' Blues
TTITLE5=Second-hand Smoke
TTITLE6=Travelin' Shoes
TTITLE7=Big Momma Rag
TTITLE8=I'll Be Good to You
TTITLE9=The Patriot
TTITLE10=This Field
TTITLE11=Willie Tames the River
TTITLE12=Train to Kokomo
EXTD=
EXTT0=
EXTT1=
EXTT2=
EXTT3=
EXTT4=
EXTT5=
EXTT6=
EXTT7=
EXTT8=
EXTT9=
EXTT10=
EXTT11=
EXTT12=
PLAYORDER=
